/* XPM */
static char *rcp023857553225[] = {
/* columns rows colors chars-per-pixel */
"32 32 3 1 ",
"  c black",
". c #FFFFEB",
"X c black",
/* pixels */
"XXXXXXXXXXXX        XXXXXXXXXXXX",
"XXXXXXXXX   .......    XXXXXXXXX",
"XXXXXXXX ..........  .. XXXXXXXX",
"XXXXXXX ...........  ... XXXXXXX",
"XXXXX  ...........  .....  XXXXX",
"XXXX .............  ....... XXXX",
"XXXX .............  ....... XXXX",
"XXX .............  ......... XXX",
"XX ..............  .......... XX",
"XX ..............  .......... XX",
"X ..............  ............ X",
"X ..............  ............ X",
"X ..............  ............ X",
" ..............  .............. ",
" ..............  .............. ",
" ..............  .............. ",
" .............................. ",
" .............................. ",
" .............................. ",
"X ............................ X",
"X ............................ X",
"X ............................ X",
"XX .......................... XX",
"XX .......................... XX",
"XXX ........................ XXX",
"XXXX ...................... XXXX",
"XXXX ...................... XXXX",
"XXXXX  ..................  XXXXX",
"XXXXXXX ................ XXXXXXX",
"XXXXXXXX .............. XXXXXXXX",
"XXXXXXXXX   ........   XXXXXXXXX",
"XXXXXXXXXXXX        XXXXXXXXXXXX"
};
