/* XPM */
static char *_27460ea312c48dcce0edfb6dfe681b56UwK4CSoWpW2Ijr7[] = {
/* columns rows colors chars-per-pixel */
"32 32 4 1 ",
"  c #272736",
". c #43434F",
"X c #606070",
"o c white",
/* pixels */
"XXXXXXXXXXXXXXXXXXXXXXXXXXXXXXXX",
"X                              X",
"X ............................ X",
"X ............................ X",
"X .....o...................... X",
"X ....oX...................... X",
"X ...oXo...................... X",
"X ...oo...................o... X",
"X ....o..................o.... X",
"X ......................o..... X",
"X ............................ X",
"X .............o.............. X",
"X ............o............... X",
"X ............................ X",
"X ............................ X",
"X ............................ X",
"X ............................ X",
"X ............................ X",
"X ............................ X",
"X ............................ X",
"X ............................ X",
"X ............................ X",
"X ................o........o.. X",
"X ......o........o........o... X",
"X .....o...................... X",
"X ....o..................o.... X",
"X ......................o..... X",
"X .....................o...... X",
"X ............................ X",
"X ............................ X",
"X                              X",
"XXXXXXXXXXXXXXXXXXXXXXXXXXXXXXXX"
};
