/* XPM */
static char *rcp02404041257270[] = {
/* columns rows colors chars-per-pixel */
"32 32 3 1 ",
"  c black",
". c #FFFFEB",
"X c black",
/* pixels */
"XXXXXXXXXXXXX      XXXXXXXXXXXXX",
"XXXXXXXXXX   ......   XXXXXXXXXX",
"XXXXXXXX  ............  XXXXXXXX",
"XXXXXXX ................ XXXXXXX",
"XXXXX  ..................  XXXXX",
"XXXX ...................... XXXX",
"XXXX ...................... XXXX",
"XXX ........................ XXX",
"XX .......................... XX",
"X ............................ X",
"X ............................ X",
"X ............................ X",
" .............................. ",
" .............................. ",
" .............................. ",
" .............................. ",
" ..............  .............. ",
" .............   .............. ",
" ...........    ............... ",
" ..........    ................ ",
"X ........   ................. X",
"X .......   .................. X",
"X .....    ................... X",
"XX ...    ................... XX",
"XXX .    ................... XXX",
"XXXX   .................... XXXX",
"XXXX  ..................... XXXX",
"XXXXX  ..................  XXXXX",
"XXXXXXX ................ XXXXXXX",
"XXXXXXXX  ............  XXXXXXXX",
"XXXXXXXXXX   ......   XXXXXXXXXX",
"XXXXXXXXXXXXX      XXXXXXXXXXXXX"
};
